	<svg width="16" height="33" viewBox="0 0 16 33" fill="none" xmlns="http://www.w3.org/2000/svg">
<path d="M4.76497 11.5781H1.45378L0.92277 31.2124C0.915137 31.4307 0.951876 31.6483 1.03076 31.8521C1.10965 32.0558 1.22905 32.2414 1.38173 32.3977C1.53779 32.5596 1.72506 32.6881 1.93221 32.7755C2.13935 32.8629 2.36208 32.9074 2.58691 32.9062H3.63185C3.85668 32.9074 4.0794 32.8629 4.28655 32.7755C4.4937 32.6881 4.68096 32.5596 4.83702 32.3977C4.98941 32.2419 5.10865 32.0568 5.18755 31.8537C5.26644 31.6505 5.30335 31.4335 5.29605 31.2157L4.76497 11.5781Z" fill="#D3D3D5" fill-opacity="0.65"/>
<path d="M5.29688 0.09375C5.15183 0.09375 5.01273 0.151367 4.91018 0.253926C4.80762 0.356485 4.75 0.495585 4.75 0.640625V6.10938H3.65625V0.640625C3.65625 0.495585 3.59863 0.356485 3.49607 0.253926C3.39351 0.151367 3.25442 0.09375 3.10938 0.09375C2.96433 0.09375 2.82524 0.151367 2.72268 0.253926C2.62012 0.356485 2.5625 0.495585 2.5625 0.640625V6.10938H1.46875V0.640625C1.46875 0.495585 1.41113 0.356485 1.30857 0.253926C1.20601 0.151367 1.06692 0.09375 0.921875 0.09375C0.776835 0.09375 0.637735 0.151367 0.535176 0.253926C0.432617 0.356485 0.375 0.495585 0.375 0.640625V8.32736C0.375495 8.75181 0.474305 9.17038 0.663682 9.55024L1.13078 10.4844H5.08797L5.55507 9.55024C5.74444 9.17038 5.84325 8.75181 5.84375 8.32736V0.640625C5.84375 0.495585 5.78613 0.356485 5.68357 0.253926C5.58102 0.151367 5.44192 0.09375 5.29688 0.09375Z" fill="#D3D3D5" fill-opacity="0.65"/>
<path d="M11.3125 14.8594H14.5938V0.640625C14.5938 0.495585 14.5361 0.356485 14.4336 0.253926C14.331 0.151367 14.1919 0.09375 14.0469 0.09375C12.9494 0.09375 12.0115 0.856709 11.2592 2.36137C10.7155 3.44883 10.2538 4.95048 9.88715 6.82469C9.27109 9.97325 9.13116 13.0649 9.12549 13.195C9.12001 13.3209 9.1582 13.4448 9.2336 13.5459C9.309 13.6469 9.41698 13.7187 9.53926 13.7493L11.3125 14.1926V14.8594Z" fill="#D3D3D5" fill-opacity="0.65"/>
<path d="M14.613 15.9531H11.2933L10.7665 31.2124C10.7589 31.4307 10.7956 31.6483 10.8745 31.8521C10.9534 32.0558 11.0728 32.2414 11.2255 32.3977C11.3815 32.5596 11.5688 32.6881 11.776 32.7755C11.9831 32.8629 12.2058 32.9074 12.4307 32.9062H13.4756C13.7004 32.9074 13.9232 32.8629 14.1303 32.7755C14.3375 32.6881 14.5247 32.5596 14.6808 32.3977C14.8336 32.2413 14.953 32.0556 15.0319 31.8517C15.1107 31.6478 15.1474 31.43 15.1397 31.2115L14.613 15.9531Z" fill="#D3D3D5" fill-opacity="0.65"/>
</svg>