<svg width="25" height="35" viewBox="0 0 25 35" fill="none" xmlns="http://www.w3.org/2000/svg">
<path d="M13.6812 0.603021C13.4071 0.224583 12.9674 0 12.5 0C12.0326 0 11.5929 0.224583 11.3187 0.603021C10.171 2.18823 0.104156 16.2735 0.104156 22.6042C0.104156 29.4394 5.66478 35 12.5 35C19.3352 35 24.8958 29.4394 24.8958 22.6042C24.8958 16.2735 14.8289 2.18823 13.6812 0.603021ZM12.5 32.0833C7.27332 32.0833 3.02082 27.8308 3.02082 22.6042C3.02082 18.5602 9.06051 8.97167 12.5 3.98854C15.9395 8.97167 21.9792 18.5602 21.9792 22.6042C21.9792 27.8308 17.7267 32.0833 12.5 32.0833Z" fill="#D3D3D5" fill-opacity="0.65"/>
<path d="M12.5 26.9791C10.0872 26.9791 8.12501 25.017 8.12501 22.6041C8.12501 21.7991 7.47168 21.1458 6.66668 21.1458C5.86168 21.1458 5.20834 21.7991 5.20834 22.6041C5.20834 26.6248 8.47939 29.8958 12.5 29.8958C13.305 29.8958 13.9583 29.2425 13.9583 28.4375C13.9583 27.6325 13.305 26.9791 12.5 26.9791Z" fill="#D3D3D5" fill-opacity="0.65"/>
</svg>
